# Blender v3.5.0 OBJ File: 'SofaAndBookshelfs.blend'
# www.blender.org
mtllib Stair.mtl
o Stair_Cube.012
v -0.500005 -0.100000 2.500005
v -0.500005 0.100000 2.500005
v 0.499995 -0.100000 2.500005
v 0.499995 0.100000 2.500005
v 0.499995 -0.100000 0.000000
v 0.499995 0.100000 0.000000
v -0.500005 -0.100000 0.000000
v -0.500005 0.100000 0.000000
v -0.266163 0.518540 2.109542
v -0.266163 -0.033650 2.109542
v -0.266163 0.518540 2.271951
v -0.266163 -0.033650 2.271951
v -0.428572 0.518540 2.109542
v -0.428572 -0.033650 2.109542
v -0.428572 0.518540 2.271951
v -0.428572 -0.033650 2.271951
v -0.500005 -0.100000 -2.500005
v -0.500005 0.100000 -2.500005
v 0.499995 -0.100000 -2.500005
v 0.499995 0.100000 -2.500005
v -0.266163 0.518540 -2.109542
v -0.266163 -0.033650 -2.109542
v -0.266163 0.518540 -2.271951
v -0.266163 -0.033650 -2.271951
v -0.428572 0.518540 -2.109542
v -0.428572 -0.033650 -2.109542
v -0.428572 0.518540 -2.271951
v -0.428572 -0.033650 -2.271951
v -1.150005 0.456686 2.500005
v -1.150005 0.656686 2.500005
v -0.150005 0.456686 2.500005
v -0.150005 0.656686 2.500005
v -0.150006 0.456686 0.000000
v -0.150006 0.656686 0.000000
v -1.150006 0.456686 0.000000
v -1.150006 0.656686 0.000000
v -0.916163 1.075225 2.109542
v -0.916163 0.523035 2.109542
v -0.916163 1.075225 2.271951
v -0.916163 0.523035 2.271951
v -1.078572 1.075225 2.109542
v -1.078572 0.523035 2.109542
v -1.078572 1.075225 2.271951
v -1.078572 0.523035 2.271951
v -1.150005 0.456686 -2.500005
v -1.150005 0.656686 -2.500005
v -0.150005 0.456686 -2.500005
v -0.150005 0.656686 -2.500005
v -0.916163 1.075225 -2.109542
v -0.916163 0.523035 -2.109542
v -0.916163 1.075225 -2.271951
v -0.916163 0.523035 -2.271951
v -1.078572 1.075225 -2.109542
v -1.078572 0.523035 -2.109542
v -1.078572 1.075225 -2.271951
v -1.078572 0.523035 -2.271951
v -1.800005 1.013371 2.500005
v -1.800005 1.213371 2.500005
v -0.800005 1.013371 2.500005
v -0.800005 1.213371 2.500005
v -0.800006 1.013371 0.000000
v -0.800006 1.213371 0.000000
v -1.800006 1.013371 0.000000
v -1.800006 1.213371 0.000000
v -1.566163 1.631911 2.109542
v -1.566163 1.079721 2.109542
v -1.566163 1.631911 2.271951
v -1.566163 1.079721 2.271951
v -1.728572 1.631911 2.109542
v -1.728572 1.079721 2.109542
v -1.728572 1.631911 2.271951
v -1.728572 1.079721 2.271951
v -1.800005 1.013371 -2.500005
v -1.800005 1.213371 -2.500005
v -0.800005 1.013371 -2.500005
v -0.800005 1.213371 -2.500005
v -1.566163 1.631911 -2.109542
v -1.566163 1.079721 -2.109542
v -1.566163 1.631911 -2.271951
v -1.566163 1.079721 -2.271951
v -1.728572 1.631911 -2.109542
v -1.728572 1.079721 -2.109542
v -1.728572 1.631911 -2.271951
v -1.728572 1.079721 -2.271951
v -2.450006 1.570057 2.500005
v -2.450006 1.770057 2.500005
v -1.450006 1.570057 2.500005
v -1.450006 1.770057 2.500005
v -1.450006 1.570057 0.000000
v -1.450006 1.770057 0.000000
v -2.450006 1.570057 0.000000
v -2.450006 1.770057 0.000000
v -2.216164 2.188596 2.109542
v -2.216164 1.636407 2.109542
v -2.216164 2.188596 2.271951
v -2.216164 1.636407 2.271951
v -2.378572 2.188596 2.109542
v -2.378572 1.636407 2.109542
v -2.378572 2.188596 2.271951
v -2.378572 1.636407 2.271951
v -2.450006 1.570057 -2.500005
v -2.450006 1.770057 -2.500005
v -1.450006 1.570057 -2.500005
v -1.450006 1.770057 -2.500005
v -2.216164 2.188596 -2.109542
v -2.216164 1.636407 -2.109542
v -2.216164 2.188596 -2.271951
v -2.216164 1.636407 -2.271951
v -2.378572 2.188596 -2.109542
v -2.378572 1.636407 -2.109542
v -2.378572 2.188596 -2.271951
v -2.378572 1.636407 -2.271951
vt 0.375000 0.375000
vt 0.625000 0.375000
vt 0.625000 0.500000
vt 0.375000 0.500000
vt 0.625000 0.750000
vt 0.375000 0.750000
vt 0.250000 0.500000
vt 0.250000 0.750000
vt 0.750000 0.500000
vt 0.750000 0.750000
vt 0.625000 0.875000
vt 0.375000 0.875000
vt 0.375000 0.000000
vt 0.375000 0.250000
vt 0.625000 0.250000
vt 0.625000 0.000000
vt 0.375000 0.500000
vt 0.625000 0.500000
vt 0.375000 0.750000
vt 0.625000 0.750000
vt 0.375000 1.000000
vt 0.625000 1.000000
vt 0.125000 0.500000
vt 0.125000 0.750000
vt 0.875000 0.750000
vt 0.875000 0.500000
vt 0.375000 0.500000
vt 0.625000 0.500000
vt 0.375000 0.750000
vt 0.625000 0.750000
vt 0.375000 0.000000
vt 0.625000 0.000000
vt 0.625000 0.250000
vt 0.375000 0.250000
vt 0.625000 0.500000
vt 0.375000 0.500000
vt 0.625000 0.750000
vt 0.375000 0.750000
vt 0.625000 1.000000
vt 0.375000 1.000000
vt 0.125000 0.500000
vt 0.125000 0.750000
vt 0.875000 0.500000
vt 0.875000 0.750000
vt 0.375000 0.375000
vt 0.625000 0.375000
vt 0.625000 0.500000
vt 0.375000 0.500000
vt 0.625000 0.750000
vt 0.375000 0.750000
vt 0.250000 0.500000
vt 0.250000 0.750000
vt 0.750000 0.500000
vt 0.750000 0.750000
vt 0.625000 0.875000
vt 0.375000 0.875000
vt 0.375000 0.000000
vt 0.375000 0.250000
vt 0.625000 0.250000
vt 0.625000 0.000000
vt 0.375000 0.500000
vt 0.625000 0.500000
vt 0.375000 0.750000
vt 0.625000 0.750000
vt 0.375000 1.000000
vt 0.625000 1.000000
vt 0.125000 0.500000
vt 0.125000 0.750000
vt 0.875000 0.750000
vt 0.875000 0.500000
vt 0.375000 0.500000
vt 0.625000 0.500000
vt 0.375000 0.750000
vt 0.625000 0.750000
vt 0.375000 0.000000
vt 0.625000 0.000000
vt 0.625000 0.250000
vt 0.375000 0.250000
vt 0.625000 0.500000
vt 0.375000 0.500000
vt 0.625000 0.750000
vt 0.375000 0.750000
vt 0.625000 1.000000
vt 0.375000 1.000000
vt 0.125000 0.500000
vt 0.125000 0.750000
vt 0.875000 0.500000
vt 0.875000 0.750000
vt 0.375000 0.375000
vt 0.625000 0.375000
vt 0.625000 0.500000
vt 0.375000 0.500000
vt 0.625000 0.750000
vt 0.375000 0.750000
vt 0.250000 0.500000
vt 0.250000 0.750000
vt 0.750000 0.500000
vt 0.750000 0.750000
vt 0.625000 0.875000
vt 0.375000 0.875000
vt 0.375000 0.000000
vt 0.375000 0.250000
vt 0.625000 0.250000
vt 0.625000 0.000000
vt 0.375000 0.500000
vt 0.625000 0.500000
vt 0.375000 0.750000
vt 0.625000 0.750000
vt 0.375000 1.000000
vt 0.625000 1.000000
vt 0.125000 0.500000
vt 0.125000 0.750000
vt 0.875000 0.750000
vt 0.875000 0.500000
vt 0.375000 0.500000
vt 0.625000 0.500000
vt 0.375000 0.750000
vt 0.625000 0.750000
vt 0.375000 0.000000
vt 0.625000 0.000000
vt 0.625000 0.250000
vt 0.375000 0.250000
vt 0.625000 0.500000
vt 0.375000 0.500000
vt 0.625000 0.750000
vt 0.375000 0.750000
vt 0.625000 1.000000
vt 0.375000 1.000000
vt 0.125000 0.500000
vt 0.125000 0.750000
vt 0.875000 0.500000
vt 0.875000 0.750000
vt 0.375000 0.375000
vt 0.625000 0.375000
vt 0.625000 0.500000
vt 0.375000 0.500000
vt 0.625000 0.750000
vt 0.375000 0.750000
vt 0.250000 0.500000
vt 0.250000 0.750000
vt 0.750000 0.500000
vt 0.750000 0.750000
vt 0.625000 0.875000
vt 0.375000 0.875000
vt 0.375000 0.000000
vt 0.375000 0.250000
vt 0.625000 0.250000
vt 0.625000 0.000000
vt 0.375000 0.500000
vt 0.625000 0.500000
vt 0.375000 0.750000
vt 0.625000 0.750000
vt 0.375000 1.000000
vt 0.625000 1.000000
vt 0.125000 0.500000
vt 0.125000 0.750000
vt 0.875000 0.750000
vt 0.875000 0.500000
vt 0.375000 0.500000
vt 0.625000 0.500000
vt 0.375000 0.750000
vt 0.625000 0.750000
vt 0.375000 0.000000
vt 0.625000 0.000000
vt 0.625000 0.250000
vt 0.375000 0.250000
vt 0.625000 0.500000
vt 0.375000 0.500000
vt 0.625000 0.750000
vt 0.375000 0.750000
vt 0.625000 1.000000
vt 0.375000 1.000000
vt 0.125000 0.500000
vt 0.125000 0.750000
vt 0.875000 0.500000
vt 0.875000 0.750000
vn 1.0000 0.0000 -0.0000
vn 0.0000 0.0000 1.0000
vn 0.0000 -1.0000 -0.0000
vn 0.0000 1.0000 -0.0000
vn -1.0000 0.0000 0.0000
vn 0.0000 0.0000 -1.0000
usemtl None
s off
f 5/1/1 6/2/1 4/3/1 3/4/1
f 3/4/2 4/3/2 2/5/2 1/6/2
f 5/7/3 3/4/3 1/6/3 7/8/3
f 4/3/4 6/9/4 8/10/4 2/5/4
f 1/6/5 2/5/5 8/11/5 7/12/5
f 9/13/1 11/14/1 12/15/1 10/16/1
f 11/14/2 15/17/2 16/18/2 12/15/2
f 15/17/5 13/19/5 14/20/5 16/18/5
f 13/19/6 9/21/6 10/22/6 14/20/6
f 11/23/4 9/24/4 13/19/4 15/17/4
f 16/18/3 14/20/3 10/25/3 12/26/3
f 5/1/1 19/27/1 20/28/1 6/2/1
f 19/27/6 17/29/6 18/30/6 20/28/6
f 5/7/3 7/8/3 17/29/3 19/27/3
f 20/28/4 18/30/4 8/10/4 6/9/4
f 17/29/5 7/12/5 8/11/5 18/30/5
f 21/31/1 22/32/1 24/33/1 23/34/1
f 23/34/6 24/33/6 28/35/6 27/36/6
f 27/36/5 28/35/5 26/37/5 25/38/5
f 25/38/2 26/37/2 22/39/2 21/40/2
f 23/41/4 27/36/4 25/38/4 21/42/4
f 28/35/3 24/43/3 22/44/3 26/37/3
f 33/45/1 34/46/1 32/47/1 31/48/1
f 31/48/2 32/47/2 30/49/2 29/50/2
f 33/51/3 31/48/3 29/50/3 35/52/3
f 32/47/4 34/53/4 36/54/4 30/49/4
f 29/50/5 30/49/5 36/55/5 35/56/5
f 37/57/1 39/58/1 40/59/1 38/60/1
f 39/58/2 43/61/2 44/62/2 40/59/2
f 43/61/5 41/63/5 42/64/5 44/62/5
f 41/63/6 37/65/6 38/66/6 42/64/6
f 39/67/4 37/68/4 41/63/4 43/61/4
f 44/62/3 42/64/3 38/69/3 40/70/3
f 33/45/1 47/71/1 48/72/1 34/46/1
f 47/71/6 45/73/6 46/74/6 48/72/6
f 33/51/3 35/52/3 45/73/3 47/71/3
f 48/72/4 46/74/4 36/54/4 34/53/4
f 45/73/5 35/56/5 36/55/5 46/74/5
f 49/75/1 50/76/1 52/77/1 51/78/1
f 51/78/6 52/77/6 56/79/6 55/80/6
f 55/80/5 56/79/5 54/81/5 53/82/5
f 53/82/2 54/81/2 50/83/2 49/84/2
f 51/85/4 55/80/4 53/82/4 49/86/4
f 56/79/3 52/87/3 50/88/3 54/81/3
f 61/89/1 62/90/1 60/91/1 59/92/1
f 59/92/2 60/91/2 58/93/2 57/94/2
f 61/95/3 59/92/3 57/94/3 63/96/3
f 60/91/4 62/97/4 64/98/4 58/93/4
f 57/94/5 58/93/5 64/99/5 63/100/5
f 65/101/1 67/102/1 68/103/1 66/104/1
f 67/102/2 71/105/2 72/106/2 68/103/2
f 71/105/5 69/107/5 70/108/5 72/106/5
f 69/107/6 65/109/6 66/110/6 70/108/6
f 67/111/4 65/112/4 69/107/4 71/105/4
f 72/106/3 70/108/3 66/113/3 68/114/3
f 61/89/1 75/115/1 76/116/1 62/90/1
f 75/115/6 73/117/6 74/118/6 76/116/6
f 61/95/3 63/96/3 73/117/3 75/115/3
f 76/116/4 74/118/4 64/98/4 62/97/4
f 73/117/5 63/100/5 64/99/5 74/118/5
f 77/119/1 78/120/1 80/121/1 79/122/1
f 79/122/6 80/121/6 84/123/6 83/124/6
f 83/124/5 84/123/5 82/125/5 81/126/5
f 81/126/2 82/125/2 78/127/2 77/128/2
f 79/129/4 83/124/4 81/126/4 77/130/4
f 84/123/3 80/131/3 78/132/3 82/125/3
f 89/133/1 90/134/1 88/135/1 87/136/1
f 87/136/2 88/135/2 86/137/2 85/138/2
f 89/139/3 87/136/3 85/138/3 91/140/3
f 88/135/4 90/141/4 92/142/4 86/137/4
f 85/138/5 86/137/5 92/143/5 91/144/5
f 93/145/1 95/146/1 96/147/1 94/148/1
f 95/146/2 99/149/2 100/150/2 96/147/2
f 99/149/5 97/151/5 98/152/5 100/150/5
f 97/151/6 93/153/6 94/154/6 98/152/6
f 95/155/4 93/156/4 97/151/4 99/149/4
f 100/150/3 98/152/3 94/157/3 96/158/3
f 89/133/1 103/159/1 104/160/1 90/134/1
f 103/159/6 101/161/6 102/162/6 104/160/6
f 89/139/3 91/140/3 101/161/3 103/159/3
f 104/160/4 102/162/4 92/142/4 90/141/4
f 101/161/5 91/144/5 92/143/5 102/162/5
f 105/163/1 106/164/1 108/165/1 107/166/1
f 107/166/6 108/165/6 112/167/6 111/168/6
f 111/168/5 112/167/5 110/169/5 109/170/5
f 109/170/2 110/169/2 106/171/2 105/172/2
f 107/173/4 111/168/4 109/170/4 105/174/4
f 112/167/3 108/175/3 106/176/3 110/169/3
