# Blender 3.5.1
# www.blender.org
mtllib TableCircle.mtl
o TableCircle
v 0.000000 2.273753 -0.307624
v 0.000000 2.573753 -2.300000
v 0.153812 2.273753 -0.266410
v 1.150000 2.573753 -1.991858
v 0.266411 2.273753 -0.153812
v 1.991858 2.573753 -1.150000
v 0.307624 2.273753 0.000000
v 2.300000 2.573753 0.000000
v 0.266410 2.273753 0.153812
v 1.991858 2.573753 1.150000
v 0.153812 2.273753 0.266411
v 1.150000 2.573753 1.991858
v 0.000000 2.273753 0.307624
v 0.000000 2.573753 2.300000
v -0.153812 2.273753 0.266410
v -1.150000 2.573753 1.991858
v -0.266411 2.273753 0.153812
v -1.991858 2.573753 1.150000
v -0.307624 2.273753 0.000000
v -2.300000 2.573753 0.000000
v -0.266410 2.273753 -0.153812
v -1.991858 2.573753 -1.150000
v -0.153812 2.273753 -0.266411
v -1.150000 2.573753 -1.991858
v 0.000000 2.273753 -2.300000
v 1.150000 2.273753 -1.991858
v 1.991858 2.273753 -1.150000
v 2.300000 2.273753 0.000000
v 1.991858 2.273753 1.150000
v 1.150000 2.273753 1.991858
v 0.000000 2.273753 2.300000
v -1.150000 2.273753 1.991858
v -1.991858 2.273753 1.150000
v -2.300000 2.273753 0.000000
v -1.991858 2.273753 -1.150000
v -1.150000 2.273753 -1.991858
v 0.000000 0.273753 -0.307624
v 0.153812 0.273753 -0.266410
v 0.266411 0.273753 -0.153812
v 0.307624 0.273753 0.000000
v 0.266410 0.273753 0.153812
v 0.153812 0.273753 0.266411
v 0.000000 0.273753 0.307624
v -0.153812 0.273753 0.266410
v -0.266411 0.273753 0.153812
v -0.307624 0.273753 0.000000
v -0.266410 0.273753 -0.153812
v -0.153812 0.273753 -0.266411
v 0.000000 0.064693 -1.261260
v 0.630629 0.064693 -1.092282
v 1.092283 0.064693 -0.630630
v 1.261260 0.064693 -0.000000
v 1.092282 0.064693 0.630629
v 0.630630 0.064693 1.092283
v 0.000000 0.064693 1.261260
v -0.630629 0.064693 1.092282
v -1.092283 0.064693 0.630630
v -1.261260 0.064693 -0.000000
v -1.092282 0.064693 -0.630629
v -0.630630 0.064693 -1.092283
v 0.000000 0.011386 -1.261260
v 0.630629 0.011386 -1.092282
v 1.092283 0.011386 -0.630630
v 1.261260 0.011386 -0.000000
v 1.092282 0.011386 0.630629
v 0.630630 0.011386 1.092283
v 0.000000 0.011386 1.261260
v -0.630629 0.011386 1.092282
v -1.092283 0.011386 0.630630
v -1.261260 0.011386 -0.000000
v -1.092282 0.011386 -0.630629
v -0.630630 0.011386 -1.092283
vn 0.2588 -0.0000 -0.9659
vn 0.7071 -0.0000 -0.7071
vn 0.9659 -0.0000 -0.2588
vn 0.9659 -0.0000 0.2588
vn 0.7071 -0.0000 0.7071
vn 0.2588 -0.0000 0.9659
vn -0.2588 -0.0000 0.9659
vn -0.7071 -0.0000 0.7071
vn -0.9659 -0.0000 0.2588
vn -0.9659 -0.0000 -0.2588
vn -0.0000 1.0000 -0.0000
vn -0.7071 -0.0000 -0.7071
vn -0.2588 -0.0000 -0.9659
vn -0.0000 -1.0000 -0.0000
vn 0.2138 0.9752 0.0573
vn -0.0573 0.9752 0.2138
vn -0.2138 0.9752 -0.0573
vn 0.2138 0.9752 -0.0573
vn 0.0573 0.9752 0.2138
vn -0.2138 0.9752 0.0573
vn 0.1565 0.9752 -0.1565
vn -0.0573 0.9752 -0.2138
vn 0.1565 0.9752 0.1565
vn -0.1565 0.9752 0.1565
vn 0.0573 0.9752 -0.2138
vn -0.1565 0.9752 -0.1565
vt 0.628351 0.820727
vt 0.427350 0.037233
vt 0.460666 0.488820
vt 0.328352 0.748074
vt 0.633825 0.830207
vt 0.438298 0.037233
vt 0.328352 0.829922
vt 0.460666 0.570669
vt 0.633825 0.841154
vt 0.449245 0.037233
vt 0.328352 0.911770
vt 0.501590 0.641552
vt 0.628351 0.850635
vt 0.328826 0.037233
vt 0.460192 0.037233
vt 0.328352 0.993619
vt 0.328352 0.011438
vt 0.572473 0.682476
vt 0.618870 0.856108
vt 0.339773 0.037233
vt 0.328352 0.093287
vt 0.654321 0.682476
vt 0.607923 0.856108
vt 0.350720 0.037233
vt 0.328352 0.175135
vt 0.725204 0.641552
vt 0.598443 0.850635
vt 0.361667 0.037233
vt 0.328352 0.256983
vt 0.766128 0.570669
vt 0.592969 0.841154
vt 0.372614 0.037233
vt 0.328352 0.338832
vt 0.766128 0.488820
vt 0.592969 0.830207
vt 0.383562 0.037233
vt 0.328352 0.420680
vt 0.725204 0.417938
vt 0.598443 0.820727
vt 0.394509 0.037233
vt 0.328352 0.502528
vt 0.654321 0.377014
vt 0.607923 0.815253
vt 0.405456 0.037233
vt 0.572473 0.377014
vt 0.328352 0.584377
vt 0.618870 0.815253
vt 0.416403 0.037233
vt 0.501590 0.417938
vt 0.328352 0.666225
vt 0.012114 0.748074
vt 0.725204 0.723874
vt 0.012114 0.829922
vt 0.766128 0.794757
vt 0.012114 0.911770
vt 0.766128 0.876605
vt 0.012114 0.993619
vt 0.012114 0.011438
vt 0.725204 0.947488
vt 0.012114 0.093287
vt 0.654321 0.988412
vt 0.012114 0.175135
vt 0.572473 0.988412
vt 0.012114 0.256983
vt 0.501590 0.947488
vt 0.012114 0.338832
vt 0.460666 0.876605
vt 0.012114 0.420680
vt 0.460666 0.794757
vt 0.012114 0.502528
vt 0.501590 0.723874
vt 0.012114 0.584377
vt 0.572473 0.682950
vt 0.012114 0.666225
vt 0.654321 0.682950
vt 0.427350 0.717999
vt 0.732502 0.139453
vt 0.438297 0.717999
vt 0.742710 0.143404
vt 0.449245 0.717999
vt 0.753390 0.145811
vt 0.328825 0.717999
vt 0.460192 0.717999
vt 0.691647 0.057569
vt 0.764307 0.146618
vt 0.339773 0.717999
vt 0.690248 0.068427
vt 0.350720 0.717999
vt 0.690463 0.079372
vt 0.361667 0.717999
vt 0.692286 0.090166
vt 0.372614 0.717999
vt 0.695678 0.100574
vt 0.383561 0.717999
vt 0.700566 0.110370
vt 0.394509 0.717999
vt 0.706842 0.119340
vt 0.405456 0.717999
vt 0.714370 0.127288
vt 0.416403 0.717999
vt 0.722985 0.134041
vt 0.633904 0.347160
vt 0.822794 0.780965
vt 0.675760 0.363362
vt 0.822794 0.825848
vt 0.719546 0.373227
vt 0.822794 0.870732
vt 0.466401 0.011438
vt 0.764307 0.376540
vt 0.822794 0.915615
vt 0.822794 0.377014
vt 0.460666 0.055953
vt 0.822794 0.421897
vt 0.461545 0.100829
vt 0.822794 0.466781
vt 0.469020 0.145085
vt 0.822794 0.511665
vt 0.482928 0.187759
vt 0.822793 0.556548
vt 0.502966 0.227922
vt 0.822793 0.601432
vt 0.528698 0.264697
vt 0.822793 0.646315
vt 0.559563 0.297284
vt 0.822794 0.691199
vt 0.594887 0.324972
vt 0.822794 0.736082
vt 0.787223 0.156504
vt 0.766602 0.780965
vt 0.764781 0.117633
vt 0.766602 0.825848
vt 0.764781 0.072750
vt 0.766603 0.870732
vt 0.787223 0.033880
vt 0.766603 0.915615
vt 0.766602 0.377014
vt 0.826093 0.011438
vt 0.766602 0.421897
vt 0.870977 0.011438
vt 0.766602 0.466781
vt 0.909847 0.033880
vt 0.766602 0.511664
vt 0.932288 0.072750
vt 0.766602 0.556548
vt 0.932288 0.117634
vt 0.766602 0.601432
vt 0.909847 0.156504
vt 0.766602 0.646315
vt 0.870976 0.178946
vt 0.766602 0.691199
vt 0.826093 0.178946
vt 0.766602 0.736082
s 0
f 25/51/1 2/4/1 4/7/1 26/53/1
f 26/53/2 4/7/2 6/11/2 27/55/2
f 27/55/3 6/11/3 8/16/3 28/57/3
f 28/58/4 8/17/4 10/21/4 29/60/4
f 29/60/5 10/21/5 12/25/5 30/62/5
f 30/62/6 12/25/6 14/29/6 31/64/6
f 31/64/7 14/29/7 16/33/7 32/66/7
f 32/66/8 16/33/8 18/37/8 33/68/8
f 33/68/9 18/37/9 20/41/9 34/70/9
f 34/70/10 20/41/10 22/46/10 35/72/10
f 4/8/11 2/3/11 24/49/11 22/45/11 20/42/11 18/38/11 16/34/11 14/30/11 12/26/11 10/22/11 8/18/11 6/12/11
f 35/72/12 22/46/12 24/50/12 36/74/12
f 36/74/13 24/50/13 2/4/13 25/51/13
f 19/40/10 21/44/10 47/98/10 46/96/10
f 3/5/14 1/1/14 25/52/14 26/54/14
f 5/9/14 3/5/14 26/54/14 27/56/14
f 7/13/14 5/9/14 27/56/14 28/59/14
f 9/19/14 7/13/14 28/59/14 29/61/14
f 11/23/14 9/19/14 29/61/14 30/63/14
f 13/27/14 11/23/14 30/63/14 31/65/14
f 15/31/14 13/27/14 31/65/14 32/67/14
f 17/35/14 15/31/14 32/67/14 33/69/14
f 19/39/14 17/35/14 33/69/14 34/71/14
f 21/43/14 19/39/14 34/71/14 35/73/14
f 23/47/14 21/43/14 35/73/14 36/75/14
f 1/1/14 23/47/14 36/75/14 25/52/14
f 13/28/7 15/32/7 44/92/7 43/90/7
f 7/14/4 9/20/4 41/86/4 40/82/4
f 21/44/12 23/48/12 48/100/12 47/98/12
f 1/2/1 3/6/1 38/78/1 37/76/1
f 15/32/8 17/36/8 45/94/8 44/92/8
f 9/20/5 11/24/5 42/88/5 41/86/5
f 23/48/13 1/2/13 37/76/13 48/100/13
f 3/6/2 5/10/2 39/80/2 38/78/2
f 17/36/9 19/40/9 46/96/9 45/94/9
f 11/24/6 13/28/6 43/90/6 42/88/6
f 5/10/3 7/15/3 40/83/3 39/80/3
f 40/84/15 41/87/15 53/112/15 52/108/15
f 43/91/16 44/93/16 56/118/16 55/116/16
f 46/97/17 47/99/17 59/124/17 58/122/17
f 39/81/18 40/85/18 52/109/18 51/106/18
f 42/89/19 43/91/19 55/116/19 54/114/19
f 45/95/20 46/97/20 58/122/20 57/120/20
f 38/79/21 39/81/21 51/106/21 50/104/21
f 48/101/22 37/77/22 49/102/22 60/126/22
f 41/87/23 42/89/23 54/114/23 53/112/23
f 44/93/24 45/95/24 57/120/24 56/118/24
f 37/77/25 38/79/25 50/104/25 49/102/25
f 47/99/26 48/101/26 60/126/26 59/124/26
f 59/125/12 60/127/12 72/152/12 71/150/12
f 61/128/14 62/130/14 63/132/14 64/134/14 65/137/14 66/139/14 67/141/14 68/143/14 69/145/14 70/147/14 71/149/14 72/151/14
f 49/103/1 50/105/1 62/131/1 61/129/1
f 56/119/8 57/121/8 69/146/8 68/144/8
f 53/113/5 54/115/5 66/140/5 65/138/5
f 60/127/13 49/103/13 61/129/13 72/152/13
f 50/105/2 51/107/2 63/133/2 62/131/2
f 57/121/9 58/123/9 70/148/9 69/146/9
f 54/115/6 55/117/6 67/142/6 66/140/6
f 51/107/3 52/110/3 64/135/3 63/133/3
f 58/123/10 59/125/10 71/150/10 70/148/10
f 55/117/7 56/119/7 68/144/7 67/142/7
f 52/111/4 53/113/4 65/138/4 64/136/4
